<svg id="Layer_1" data-name="Layer 1" xmlns="http://www.w3.org/2000/svg" xmlns:xlink="http://www.w3.org/1999/xlink" viewBox="0 0 1026 254"><defs><style>.cls-1{fill:url(#radial-gradient);}.cls-2{fill:#fff;}</style><radialGradient id="radial-gradient" cx="38.41" cy="32.17" r="191.49" gradientUnits="userSpaceOnUse"><stop offset="0" stop-color="#32fcb6"/><stop offset="1" stop-color="#2469ff"/></radialGradient></defs><title>Codevider_logo</title><path class="cls-1" d="M188.36,37.33H91.77a5.87,5.87,0,0,0-5.08,2.93l-48.3,83.65a5.86,5.86,0,0,0,0,5.87l48.3,83.65a5.86,5.86,0,0,0,5.08,2.94h96.59a5.86,5.86,0,0,0,5.08-2.94l48.3-83.65a5.86,5.86,0,0,0,0-5.87l-48.3-83.65A5.87,5.87,0,0,0,188.36,37.33Z"/><path class="cls-2" d="M140.05,170.55l-33.28-33.28c-6.33-6.33-9.77-13.62-10-21.09a24.37,24.37,0,0,1,7.17-18c8.37-8.37,23-10.64,36.08,0,13.08-10.72,27.75-8.46,36.12-.09a24.35,24.35,0,0,1,7.16,18c-.2,7.47-3.66,14.77-10,21.11Zm-18.71-71a15.89,15.89,0,0,0-16,16.38c.13,5.23,2.71,10.51,7.46,15.26l27.23,27.23,27.23-27.23c4.76-4.76,7.35-10,7.49-15.29a15.86,15.86,0,0,0-4.65-11.75c-5.83-5.83-16.78-7.43-27,2.83l-3,3-3-3C131.72,101.71,126.22,99.58,121.34,99.58Z"/><path class="cls-2" d="M185.42,183.51a3.41,3.41,0,0,1-1.73-.47,3.47,3.47,0,0,1-1.27-4.74l29.71-51.45L182.42,75.39a3.47,3.47,0,1,1,6-3.47l30.71,53.19a3.47,3.47,0,0,1,0,3.47l-30.71,53.19A3.47,3.47,0,0,1,185.42,183.51Z"/><path class="cls-2" d="M94.71,183.51a3.47,3.47,0,0,1-3-1.74L61,128.58a3.47,3.47,0,0,1,0-3.47L91.7,71.92a3.47,3.47,0,1,1,6,3.47L68,126.85,97.71,178.3A3.47,3.47,0,0,1,96.44,183,3.39,3.39,0,0,1,94.71,183.51Z"/><path d="M282.65,133.94a43.05,43.05,0,0,1,2.87-15.69,38.16,38.16,0,0,1,8.3-13,40.33,40.33,0,0,1,13.12-8.9,43.43,43.43,0,0,1,17.35-3.32q13,0,22.1,5.58A35.7,35.7,0,0,1,360,113.27l-19.76,6a17.8,17.8,0,0,0-6.79-6.72,19.1,19.1,0,0,0-9.35-2.33A19.34,19.34,0,0,0,316,112a20.13,20.13,0,0,0-6.56,4.83,22.46,22.46,0,0,0-4.38,7.46,28.37,28.37,0,0,0-1.58,9.66,26.89,26.89,0,0,0,1.66,9.65,24.51,24.51,0,0,0,4.45,7.55,19.65,19.65,0,0,0,6.56,4.9,19,19,0,0,0,8,1.73,19.38,19.38,0,0,0,10-2.71,15.3,15.3,0,0,0,6.41-6.64l19.76,6a33.21,33.21,0,0,1-13.43,14.79Q337.57,175,324.44,175a43.43,43.43,0,0,1-17.35-3.32,39.25,39.25,0,0,1-21.49-22.1A42,42,0,0,1,282.65,133.94Z"/><path d="M408.46,175a43.43,43.43,0,0,1-17.35-3.32,38.93,38.93,0,0,1-13.05-9,39.68,39.68,0,0,1-8.22-13.05,44.06,44.06,0,0,1,0-31.23,39.68,39.68,0,0,1,8.22-13.05,38.93,38.93,0,0,1,13.05-9,43.43,43.43,0,0,1,17.35-3.32,42.9,42.9,0,0,1,17.27,3.32,39.09,39.09,0,0,1,13,9,39.87,39.87,0,0,1,8.23,13.05,44.06,44.06,0,0,1,0,31.23,40.5,40.5,0,0,1-8.15,13.05,38.1,38.1,0,0,1-13,9A43.47,43.47,0,0,1,408.46,175Zm-20.67-40.88a27.47,27.47,0,0,0,1.59,9.58,23.46,23.46,0,0,0,4.37,7.47,19.65,19.65,0,0,0,6.56,4.9,20.06,20.06,0,0,0,16.3,0,19.75,19.75,0,0,0,6.56-4.9,23.22,23.22,0,0,0,4.37-7.55,28,28,0,0,0,1.59-9.65,27.57,27.57,0,0,0-1.59-9.5,23.11,23.11,0,0,0-4.37-7.55,19.75,19.75,0,0,0-6.56-4.9,19.41,19.41,0,0,0-8.15-1.73,18.56,18.56,0,0,0-8.15,1.81,20.41,20.41,0,0,0-6.56,5,23.22,23.22,0,0,0-4.37,7.55A27.57,27.57,0,0,0,387.79,134.09Z"/><path d="M496.1,175A35.88,35.88,0,0,1,481,171.8a35.45,35.45,0,0,1-11.92-8.75A40.83,40.83,0,0,1,461.33,150a45.48,45.48,0,0,1-2.79-16.06,47.22,47.22,0,0,1,2.64-16,41.88,41.88,0,0,1,7.32-13,33.57,33.57,0,0,1,11.16-8.75,31.88,31.88,0,0,1,14.18-3.17,30,30,0,0,1,15.76,4.22,30.77,30.77,0,0,1,10.94,11V63.34h20.21v86.89a7.55,7.55,0,0,0,1,4.53,4.7,4.7,0,0,0,3.62,1.5v17.2a46.07,46.07,0,0,1-8.59,1.06,14,14,0,0,1-8.9-2.72,10,10,0,0,1-3.93-7.09l-.45-5a28.64,28.64,0,0,1-11.84,11.39A33.56,33.56,0,0,1,496.1,175Zm5.28-17.2a18.77,18.77,0,0,0,5.88-1,20.55,20.55,0,0,0,5.58-2.79,24.24,24.24,0,0,0,4.6-4.22,17.67,17.67,0,0,0,3.1-5.28V125.64a22.36,22.36,0,0,0-3.4-6.11,25.18,25.18,0,0,0-5-4.82,26.41,26.41,0,0,0-5.89-3.25,16.8,16.8,0,0,0-6.11-1.2,18.1,18.1,0,0,0-8.37,2,19.86,19.86,0,0,0-6.56,5.35,25.57,25.57,0,0,0-4.22,7.77,27.5,27.5,0,0,0-1.51,9,24.83,24.83,0,0,0,1.66,9.2,23.76,23.76,0,0,0,4.52,7.39,20.43,20.43,0,0,0,6.86,5A21.13,21.13,0,0,0,501.38,157.77Z"/><path d="M597.31,175a43.89,43.89,0,0,1-17.19-3.24A39.44,39.44,0,0,1,567,162.9a39,39,0,0,1-8.38-13,41.68,41.68,0,0,1-2.94-15.54,44,44,0,0,1,2.87-15.91,38.81,38.81,0,0,1,8.29-13.13,39.57,39.57,0,0,1,13.2-9,44,44,0,0,1,17.43-3.32,42.9,42.9,0,0,1,17.27,3.32,39.77,39.77,0,0,1,13,8.9,37.93,37.93,0,0,1,8.15,13,43.46,43.46,0,0,1,2.79,15.39c0,1.31,0,2.56-.08,3.77a15.54,15.54,0,0,1-.38,3H577.1a23.55,23.55,0,0,0,2.26,8.29,20.31,20.31,0,0,0,11.17,10.11,21.37,21.37,0,0,0,7.54,1.36,23.33,23.33,0,0,0,11.39-2.95,15.54,15.54,0,0,0,7.31-7.76l17.35,4.82a35.27,35.27,0,0,1-14,14.86Q610.59,175,597.31,175Zm20.52-47.67q-.75-8.89-6.56-14.25a20.58,20.58,0,0,0-28,.07,20.39,20.39,0,0,0-4.45,6.19,21.7,21.7,0,0,0-2,8Z"/><path d="M676.66,173.46l-32-78.59h10.56l27,69.09,27.15-69.09h10l-32,78.59Z"/><path d="M733.53,78.43V63.34h10.25V78.43Zm0,95V94.87h10.25v78.59Z"/><path d="M798.69,175a33.74,33.74,0,0,1-15.08-3.4,38.32,38.32,0,0,1-11.92-9,41.22,41.22,0,0,1-7.77-12.9,42.57,42.57,0,0,1-2.79-15.31,45.76,45.76,0,0,1,2.71-15.76,42.25,42.25,0,0,1,7.47-13,35.14,35.14,0,0,1,11.32-8.82A31.92,31.92,0,0,1,797,93.51a30.75,30.75,0,0,1,17.65,5.21,39.49,39.49,0,0,1,12.07,12.59v-48H837v96.85c0,2.81,1.2,4.22,3.62,4.22v9.05a19.63,19.63,0,0,1-3.62.45,9.36,9.36,0,0,1-6.34-2.34,7.18,7.18,0,0,1-2.71-5.65v-7.69a34.41,34.41,0,0,1-12.68,12.21A33.21,33.21,0,0,1,798.69,175Zm2.26-9.05a24.27,24.27,0,0,0,8.07-1.51,32.82,32.82,0,0,0,8.07-4.15,28,28,0,0,0,6.42-6.18,16.93,16.93,0,0,0,3.24-7.62V122.17a27.29,27.29,0,0,0-4.38-7.62,35.72,35.72,0,0,0-6.56-6.26,30.83,30.83,0,0,0-7.92-4.22,24.67,24.67,0,0,0-8.29-1.51,24.13,24.13,0,0,0-11.47,2.72,29,29,0,0,0-8.82,7.16,31.9,31.9,0,0,0-5.66,10.19,36,36,0,0,0-2,11.76,32.9,32.9,0,0,0,8.45,22.1,29.77,29.77,0,0,0,9.27,6.86A26.38,26.38,0,0,0,801,165.92Z"/><path d="M894.17,175a37.82,37.82,0,0,1-15.76-3.24,38.72,38.72,0,0,1-12.44-8.9,41.21,41.21,0,0,1-8.22-13.05,42.29,42.29,0,0,1-3-15.84,41.29,41.29,0,0,1,3-15.61,40.48,40.48,0,0,1,8.14-12.83,38.67,38.67,0,0,1,12.44-8.74,38.27,38.27,0,0,1,43.75,8.82,41.35,41.35,0,0,1,10.86,28.21v2.41a6.07,6.07,0,0,1-.15,1.66H865.51a33.27,33.27,0,0,0,3,11.69,31.93,31.93,0,0,0,6.41,9.28,28.75,28.75,0,0,0,9,6.11,26.82,26.82,0,0,0,10.79,2.18,28,28,0,0,0,7.54-1.05,30.23,30.23,0,0,0,6.94-2.87,25.64,25.64,0,0,0,5.73-4.45,19,19,0,0,0,3.92-5.8l8.9,2.41a26.16,26.16,0,0,1-5.13,7.92,36,36,0,0,1-7.69,6.18,38,38,0,0,1-9.65,4.08A42.21,42.21,0,0,1,894.17,175Zm29-44.95a31.65,31.65,0,0,0-9.28-20.52,28.17,28.17,0,0,0-8.9-5.88,27.68,27.68,0,0,0-10.79-2.11,28.21,28.21,0,0,0-10.86,2.11,27.82,27.82,0,0,0-9,5.88,28.91,28.91,0,0,0-6.19,9A34.43,34.43,0,0,0,865.36,130Z"/><path d="M988,103.92a32.25,32.25,0,0,0-18.1,5.73A28.88,28.88,0,0,0,959,124.59v48.87H948.78V94.87h9.65v18.86A35.73,35.73,0,0,1,970.2,99.55,27.28,27.28,0,0,1,986,94.42a10.47,10.47,0,0,1,2,.15Z"/></svg>